<mxfile host="app.diagrams.net" agent="Mozilla/5.0 (Windows NT 10.0; Win64; x64) AppleWebKit/537.36 (KHTML, like Gecko) Chrome/131.0.0.0 Safari/537.36 Edg/131.0.0.0" version="25.0.3">
  <diagram name="Page-1" id="c5nnjN6Ydqd4BGYkk4KU">
    <mxGraphModel dx="1708" dy="986" grid="1" gridSize="10" guides="1" tooltips="1" connect="1" arrows="1" fold="1" page="1" pageScale="1" pageWidth="850" pageHeight="1100" math="0" shadow="0">
      <root>
        <mxCell id="0" />
        <mxCell id="1" parent="0" />
        <mxCell id="8V72D3Lof2l-3a697NtJ-3" style="edgeStyle=orthogonalEdgeStyle;rounded=0;orthogonalLoop=1;jettySize=auto;html=1;" edge="1" parent="1" source="8V72D3Lof2l-3a697NtJ-1" target="8V72D3Lof2l-3a697NtJ-2">
          <mxGeometry relative="1" as="geometry" />
        </mxCell>
        <mxCell id="8V72D3Lof2l-3a697NtJ-1" value="start" style="ellipse;whiteSpace=wrap;html=1;" vertex="1" parent="1">
          <mxGeometry x="220" y="40" width="120" height="80" as="geometry" />
        </mxCell>
        <mxCell id="8V72D3Lof2l-3a697NtJ-2" value="num1,num2&lt;div&gt;cong,tru,nhan,chia&lt;/div&gt;" style="rounded=0;whiteSpace=wrap;html=1;" vertex="1" parent="1">
          <mxGeometry x="220" y="200" width="120" height="60" as="geometry" />
        </mxCell>
        <mxCell id="8V72D3Lof2l-3a697NtJ-6" style="edgeStyle=orthogonalEdgeStyle;rounded=0;orthogonalLoop=1;jettySize=auto;html=1;" edge="1" parent="1" source="8V72D3Lof2l-3a697NtJ-4" target="8V72D3Lof2l-3a697NtJ-5">
          <mxGeometry relative="1" as="geometry" />
        </mxCell>
        <mxCell id="8V72D3Lof2l-3a697NtJ-7" style="edgeStyle=orthogonalEdgeStyle;rounded=0;orthogonalLoop=1;jettySize=auto;html=1;entryX=0.5;entryY=1;entryDx=0;entryDy=0;" edge="1" parent="1" source="8V72D3Lof2l-3a697NtJ-4" target="8V72D3Lof2l-3a697NtJ-2">
          <mxGeometry relative="1" as="geometry" />
        </mxCell>
        <mxCell id="8V72D3Lof2l-3a697NtJ-4" value="cong = num1 + num2" style="rounded=0;whiteSpace=wrap;html=1;" vertex="1" parent="1">
          <mxGeometry x="-120" y="280" width="120" height="60" as="geometry" />
        </mxCell>
        <mxCell id="8V72D3Lof2l-3a697NtJ-24" style="edgeStyle=orthogonalEdgeStyle;rounded=0;orthogonalLoop=1;jettySize=auto;html=1;" edge="1" parent="1" source="8V72D3Lof2l-3a697NtJ-5" target="8V72D3Lof2l-3a697NtJ-23">
          <mxGeometry relative="1" as="geometry">
            <Array as="points">
              <mxPoint x="-70" y="820" />
            </Array>
          </mxGeometry>
        </mxCell>
        <mxCell id="8V72D3Lof2l-3a697NtJ-5" value="phep cong la" style="shape=parallelogram;perimeter=parallelogramPerimeter;whiteSpace=wrap;html=1;fixedSize=1;" vertex="1" parent="1">
          <mxGeometry x="-120" y="430" width="120" height="60" as="geometry" />
        </mxCell>
        <mxCell id="8V72D3Lof2l-3a697NtJ-10" style="edgeStyle=orthogonalEdgeStyle;rounded=0;orthogonalLoop=1;jettySize=auto;html=1;entryX=0.5;entryY=0;entryDx=0;entryDy=0;" edge="1" parent="1" source="8V72D3Lof2l-3a697NtJ-8" target="8V72D3Lof2l-3a697NtJ-9">
          <mxGeometry relative="1" as="geometry" />
        </mxCell>
        <mxCell id="8V72D3Lof2l-3a697NtJ-11" style="edgeStyle=orthogonalEdgeStyle;rounded=0;orthogonalLoop=1;jettySize=auto;html=1;" edge="1" parent="1" source="8V72D3Lof2l-3a697NtJ-8">
          <mxGeometry relative="1" as="geometry">
            <mxPoint x="280" y="260" as="targetPoint" />
          </mxGeometry>
        </mxCell>
        <mxCell id="8V72D3Lof2l-3a697NtJ-8" value="tru = num1 - num2" style="rounded=0;whiteSpace=wrap;html=1;" vertex="1" parent="1">
          <mxGeometry x="640" y="280" width="120" height="60" as="geometry" />
        </mxCell>
        <mxCell id="8V72D3Lof2l-3a697NtJ-25" style="edgeStyle=orthogonalEdgeStyle;rounded=0;orthogonalLoop=1;jettySize=auto;html=1;" edge="1" parent="1" source="8V72D3Lof2l-3a697NtJ-9" target="8V72D3Lof2l-3a697NtJ-23">
          <mxGeometry relative="1" as="geometry">
            <Array as="points">
              <mxPoint x="700" y="820" />
            </Array>
          </mxGeometry>
        </mxCell>
        <mxCell id="8V72D3Lof2l-3a697NtJ-9" value="phep tru la" style="shape=parallelogram;perimeter=parallelogramPerimeter;whiteSpace=wrap;html=1;fixedSize=1;" vertex="1" parent="1">
          <mxGeometry x="640" y="420" width="120" height="60" as="geometry" />
        </mxCell>
        <mxCell id="8V72D3Lof2l-3a697NtJ-20" style="edgeStyle=orthogonalEdgeStyle;rounded=0;orthogonalLoop=1;jettySize=auto;html=1;" edge="1" parent="1" source="8V72D3Lof2l-3a697NtJ-12" target="8V72D3Lof2l-3a697NtJ-17">
          <mxGeometry relative="1" as="geometry" />
        </mxCell>
        <mxCell id="8V72D3Lof2l-3a697NtJ-21" style="edgeStyle=orthogonalEdgeStyle;rounded=0;orthogonalLoop=1;jettySize=auto;html=1;entryX=0.5;entryY=1;entryDx=0;entryDy=0;" edge="1" parent="1" source="8V72D3Lof2l-3a697NtJ-12" target="8V72D3Lof2l-3a697NtJ-2">
          <mxGeometry relative="1" as="geometry">
            <mxPoint x="280" y="300" as="targetPoint" />
            <Array as="points">
              <mxPoint x="280" y="410" />
            </Array>
          </mxGeometry>
        </mxCell>
        <mxCell id="8V72D3Lof2l-3a697NtJ-12" value="nhan = num1 * num2" style="rounded=0;whiteSpace=wrap;html=1;" vertex="1" parent="1">
          <mxGeometry x="100" y="380" width="120" height="60" as="geometry" />
        </mxCell>
        <mxCell id="8V72D3Lof2l-3a697NtJ-19" style="edgeStyle=orthogonalEdgeStyle;rounded=0;orthogonalLoop=1;jettySize=auto;html=1;" edge="1" parent="1" source="8V72D3Lof2l-3a697NtJ-13" target="8V72D3Lof2l-3a697NtJ-18">
          <mxGeometry relative="1" as="geometry" />
        </mxCell>
        <mxCell id="8V72D3Lof2l-3a697NtJ-22" style="edgeStyle=orthogonalEdgeStyle;rounded=0;orthogonalLoop=1;jettySize=auto;html=1;entryX=0.5;entryY=1;entryDx=0;entryDy=0;" edge="1" parent="1" source="8V72D3Lof2l-3a697NtJ-13" target="8V72D3Lof2l-3a697NtJ-2">
          <mxGeometry relative="1" as="geometry" />
        </mxCell>
        <mxCell id="8V72D3Lof2l-3a697NtJ-13" value="chia = num1 / num2" style="rounded=0;whiteSpace=wrap;html=1;" vertex="1" parent="1">
          <mxGeometry x="365" y="380" width="120" height="60" as="geometry" />
        </mxCell>
        <mxCell id="8V72D3Lof2l-3a697NtJ-26" style="edgeStyle=orthogonalEdgeStyle;rounded=0;orthogonalLoop=1;jettySize=auto;html=1;entryX=0.5;entryY=0;entryDx=0;entryDy=0;" edge="1" parent="1" source="8V72D3Lof2l-3a697NtJ-17" target="8V72D3Lof2l-3a697NtJ-23">
          <mxGeometry relative="1" as="geometry">
            <Array as="points">
              <mxPoint x="160" y="780" />
            </Array>
          </mxGeometry>
        </mxCell>
        <mxCell id="8V72D3Lof2l-3a697NtJ-17" value="phep nhan la" style="shape=parallelogram;perimeter=parallelogramPerimeter;whiteSpace=wrap;html=1;fixedSize=1;" vertex="1" parent="1">
          <mxGeometry x="100" y="520" width="120" height="60" as="geometry" />
        </mxCell>
        <mxCell id="8V72D3Lof2l-3a697NtJ-27" style="edgeStyle=orthogonalEdgeStyle;rounded=0;orthogonalLoop=1;jettySize=auto;html=1;entryX=0.5;entryY=0;entryDx=0;entryDy=0;" edge="1" parent="1" source="8V72D3Lof2l-3a697NtJ-18" target="8V72D3Lof2l-3a697NtJ-23">
          <mxGeometry relative="1" as="geometry">
            <Array as="points">
              <mxPoint x="425" y="780" />
            </Array>
          </mxGeometry>
        </mxCell>
        <mxCell id="8V72D3Lof2l-3a697NtJ-18" value="phep chia la" style="shape=parallelogram;perimeter=parallelogramPerimeter;whiteSpace=wrap;html=1;fixedSize=1;" vertex="1" parent="1">
          <mxGeometry x="365" y="520" width="120" height="60" as="geometry" />
        </mxCell>
        <mxCell id="8V72D3Lof2l-3a697NtJ-23" value="end" style="ellipse;whiteSpace=wrap;html=1;" vertex="1" parent="1">
          <mxGeometry x="230" y="780" width="120" height="80" as="geometry" />
        </mxCell>
      </root>
    </mxGraphModel>
  </diagram>
</mxfile>
